<mxfile host="Electron" agent="Mozilla/5.0 (Windows NT 10.0; Win64; x64) AppleWebKit/537.36 (KHTML, like Gecko) draw.io/27.0.9 Chrome/134.0.6998.205 Electron/35.4.0 Safari/537.36" version="27.0.9">
  <diagram name="Page-1" id="zDC7yg41739mKEmi7JkL">
    <mxGraphModel dx="786" dy="562" grid="1" gridSize="10" guides="1" tooltips="1" connect="1" arrows="1" fold="1" page="1" pageScale="1" pageWidth="850" pageHeight="1100" math="0" shadow="0">
      <root>
        <mxCell id="0" />
        <mxCell id="1" parent="0" />
        <mxCell id="JTAhajaf97moWuEwI5oV-9" style="edgeStyle=orthogonalEdgeStyle;rounded=0;orthogonalLoop=1;jettySize=auto;html=1;exitX=0.5;exitY=1;exitDx=0;exitDy=0;entryX=0.5;entryY=0;entryDx=0;entryDy=0;endArrow=none;startFill=0;" edge="1" parent="1" source="JTAhajaf97moWuEwI5oV-1" target="JTAhajaf97moWuEwI5oV-5">
          <mxGeometry relative="1" as="geometry" />
        </mxCell>
        <mxCell id="JTAhajaf97moWuEwI5oV-1" value="department" style="rounded=0;whiteSpace=wrap;html=1;gradientColor=#A9C4EB;gradientDirection=east;" vertex="1" parent="1">
          <mxGeometry x="570" y="220" width="120" height="60" as="geometry" />
        </mxCell>
        <mxCell id="JTAhajaf97moWuEwI5oV-11" style="rounded=0;orthogonalLoop=1;jettySize=auto;html=1;exitX=0.5;exitY=1;exitDx=0;exitDy=0;endArrow=none;startFill=0;" edge="1" parent="1" source="JTAhajaf97moWuEwI5oV-2" target="JTAhajaf97moWuEwI5oV-6">
          <mxGeometry relative="1" as="geometry" />
        </mxCell>
        <mxCell id="JTAhajaf97moWuEwI5oV-14" style="rounded=0;orthogonalLoop=1;jettySize=auto;html=1;exitX=1;exitY=0.5;exitDx=0;exitDy=0;endArrow=none;startFill=0;shape=link;" edge="1" parent="1" source="JTAhajaf97moWuEwI5oV-2" target="JTAhajaf97moWuEwI5oV-13">
          <mxGeometry relative="1" as="geometry" />
        </mxCell>
        <object label="employee" id="JTAhajaf97moWuEwI5oV-2">
          <mxCell style="rounded=0;whiteSpace=wrap;html=1;gradientColor=#FFCE9F;" vertex="1" parent="1">
            <mxGeometry x="100" y="220" width="120" height="60" as="geometry" />
          </mxCell>
        </object>
        <mxCell id="JTAhajaf97moWuEwI5oV-3" value="project&amp;nbsp;" style="rounded=0;whiteSpace=wrap;html=1;gradientColor=#C3ABD0;gradientDirection=west;" vertex="1" parent="1">
          <mxGeometry x="570" y="560" width="120" height="60" as="geometry" />
        </mxCell>
        <mxCell id="JTAhajaf97moWuEwI5oV-47" style="rounded=0;orthogonalLoop=1;jettySize=auto;html=1;exitX=1;exitY=1;exitDx=0;exitDy=0;endArrow=none;startFill=0;curved=0;" edge="1" parent="1" source="JTAhajaf97moWuEwI5oV-4" target="JTAhajaf97moWuEwI5oV-44">
          <mxGeometry relative="1" as="geometry" />
        </mxCell>
        <mxCell id="JTAhajaf97moWuEwI5oV-48" style="rounded=0;orthogonalLoop=1;jettySize=auto;html=1;exitX=0.5;exitY=1;exitDx=0;exitDy=0;endArrow=none;startFill=0;" edge="1" parent="1" source="JTAhajaf97moWuEwI5oV-4" target="JTAhajaf97moWuEwI5oV-46">
          <mxGeometry relative="1" as="geometry" />
        </mxCell>
        <mxCell id="JTAhajaf97moWuEwI5oV-49" style="edgeStyle=none;rounded=0;orthogonalLoop=1;jettySize=auto;html=1;exitX=0;exitY=1;exitDx=0;exitDy=0;endArrow=none;startFill=0;" edge="1" parent="1" source="JTAhajaf97moWuEwI5oV-4" target="JTAhajaf97moWuEwI5oV-45">
          <mxGeometry relative="1" as="geometry" />
        </mxCell>
        <mxCell id="JTAhajaf97moWuEwI5oV-4" value="depantent&amp;nbsp;" style="rounded=0;whiteSpace=wrap;html=1;shadow=0;glass=0;fillStyle=auto;fillColor=default;gradientColor=#D5E8D4;sketch=1;curveFitting=1;jiggle=2;" vertex="1" parent="1">
          <mxGeometry x="90" y="570" width="120" height="60" as="geometry" />
        </mxCell>
        <mxCell id="JTAhajaf97moWuEwI5oV-10" style="edgeStyle=none;rounded=0;orthogonalLoop=1;jettySize=auto;html=1;exitX=0.5;exitY=1;exitDx=0;exitDy=0;endArrow=none;startFill=0;shape=link;" edge="1" parent="1" source="JTAhajaf97moWuEwI5oV-5" target="JTAhajaf97moWuEwI5oV-3">
          <mxGeometry relative="1" as="geometry" />
        </mxCell>
        <mxCell id="JTAhajaf97moWuEwI5oV-5" value="has" style="rhombus;whiteSpace=wrap;html=1;fillColor=#ffff88;strokeColor=#36393d;" vertex="1" parent="1">
          <mxGeometry x="590" y="360" width="80" height="80" as="geometry" />
        </mxCell>
        <mxCell id="JTAhajaf97moWuEwI5oV-6" value="have" style="rhombus;whiteSpace=wrap;html=1;rounded=0;shadow=0;sketch=1;curveFitting=1;jiggle=2;fillColor=#ffff88;strokeColor=#36393d;" vertex="1" parent="1">
          <mxGeometry x="120" y="370" width="80" height="80" as="geometry" />
        </mxCell>
        <mxCell id="JTAhajaf97moWuEwI5oV-12" style="edgeStyle=none;rounded=0;orthogonalLoop=1;jettySize=auto;html=1;exitX=0.5;exitY=1;exitDx=0;exitDy=0;entryX=0.589;entryY=0.078;entryDx=0;entryDy=0;entryPerimeter=0;endArrow=none;startFill=0;shape=link;" edge="1" parent="1" source="JTAhajaf97moWuEwI5oV-6" target="JTAhajaf97moWuEwI5oV-4">
          <mxGeometry relative="1" as="geometry" />
        </mxCell>
        <mxCell id="JTAhajaf97moWuEwI5oV-15" style="edgeStyle=none;rounded=0;orthogonalLoop=1;jettySize=auto;html=1;endArrow=none;startFill=0;" edge="1" parent="1" source="JTAhajaf97moWuEwI5oV-13" target="JTAhajaf97moWuEwI5oV-1">
          <mxGeometry relative="1" as="geometry" />
        </mxCell>
        <mxCell id="JTAhajaf97moWuEwI5oV-13" value="work" style="rhombus;whiteSpace=wrap;html=1;fillColor=#f9f7ed;strokeColor=#36393d;" vertex="1" parent="1">
          <mxGeometry x="345" y="210" width="80" height="80" as="geometry" />
        </mxCell>
        <mxCell id="JTAhajaf97moWuEwI5oV-20" style="edgeStyle=none;rounded=0;orthogonalLoop=1;jettySize=auto;html=1;entryX=1;entryY=0;entryDx=0;entryDy=0;endArrow=none;startFill=0;" edge="1" parent="1" source="JTAhajaf97moWuEwI5oV-16" target="JTAhajaf97moWuEwI5oV-1">
          <mxGeometry relative="1" as="geometry" />
        </mxCell>
        <mxCell id="JTAhajaf97moWuEwI5oV-16" value="LOC" style="ellipse;whiteSpace=wrap;html=1;shadow=0;sketch=1;curveFitting=1;jiggle=2;fillColor=#dae8fc;strokeColor=#6c8ebf;" vertex="1" parent="1">
          <mxGeometry x="720" y="120" width="80" height="70" as="geometry" />
        </mxCell>
        <mxCell id="JTAhajaf97moWuEwI5oV-22" style="edgeStyle=none;rounded=0;orthogonalLoop=1;jettySize=auto;html=1;exitX=0.5;exitY=1;exitDx=0;exitDy=0;endArrow=none;startFill=0;" edge="1" parent="1" source="JTAhajaf97moWuEwI5oV-17" target="JTAhajaf97moWuEwI5oV-1">
          <mxGeometry relative="1" as="geometry" />
        </mxCell>
        <mxCell id="JTAhajaf97moWuEwI5oV-17" value="Dname" style="ellipse;whiteSpace=wrap;html=1;fillColor=#dae8fc;strokeColor=#6c8ebf;" vertex="1" parent="1">
          <mxGeometry x="500" y="140" width="80" height="60" as="geometry" />
        </mxCell>
        <mxCell id="JTAhajaf97moWuEwI5oV-21" style="rounded=0;orthogonalLoop=1;jettySize=auto;html=1;exitX=0.5;exitY=1;exitDx=0;exitDy=0;endArrow=none;startFill=0;" edge="1" parent="1" source="JTAhajaf97moWuEwI5oV-18" target="JTAhajaf97moWuEwI5oV-1">
          <mxGeometry relative="1" as="geometry" />
        </mxCell>
        <mxCell id="JTAhajaf97moWuEwI5oV-18" value="Dnumber" style="ellipse;whiteSpace=wrap;html=1;fontStyle=4;fillColor=#dae8fc;strokeColor=#6c8ebf;" vertex="1" parent="1">
          <mxGeometry x="620" y="115" width="70" height="55" as="geometry" />
        </mxCell>
        <mxCell id="JTAhajaf97moWuEwI5oV-29" style="rounded=0;orthogonalLoop=1;jettySize=auto;html=1;exitX=1;exitY=1;exitDx=0;exitDy=0;endArrow=none;startFill=0;" edge="1" parent="1" source="JTAhajaf97moWuEwI5oV-23" target="JTAhajaf97moWuEwI5oV-2">
          <mxGeometry relative="1" as="geometry" />
        </mxCell>
        <mxCell id="JTAhajaf97moWuEwI5oV-23" value="SSN" style="ellipse;whiteSpace=wrap;html=1;fontStyle=4;fillColor=#fff2cc;strokeColor=#d6b656;" vertex="1" parent="1">
          <mxGeometry x="40" y="160" width="70" height="50" as="geometry" />
        </mxCell>
        <mxCell id="JTAhajaf97moWuEwI5oV-30" style="rounded=0;orthogonalLoop=1;jettySize=auto;html=1;exitX=0.5;exitY=1;exitDx=0;exitDy=0;endArrow=none;startFill=0;" edge="1" parent="1" source="JTAhajaf97moWuEwI5oV-24" target="JTAhajaf97moWuEwI5oV-2">
          <mxGeometry relative="1" as="geometry" />
        </mxCell>
        <mxCell id="JTAhajaf97moWuEwI5oV-24" value="BD" style="ellipse;whiteSpace=wrap;html=1;fillColor=#fff2cc;strokeColor=#d6b656;" vertex="1" parent="1">
          <mxGeometry x="115" y="120" width="70" height="45" as="geometry" />
        </mxCell>
        <mxCell id="JTAhajaf97moWuEwI5oV-31" style="rounded=0;orthogonalLoop=1;jettySize=auto;html=1;exitX=0.5;exitY=1;exitDx=0;exitDy=0;endArrow=none;startFill=0;" edge="1" parent="1" source="JTAhajaf97moWuEwI5oV-25" target="JTAhajaf97moWuEwI5oV-2">
          <mxGeometry relative="1" as="geometry" />
        </mxCell>
        <mxCell id="JTAhajaf97moWuEwI5oV-25" value="GENDER" style="ellipse;whiteSpace=wrap;html=1;fillColor=#fff2cc;strokeColor=#d6b656;" vertex="1" parent="1">
          <mxGeometry x="200" y="130" width="60" height="40" as="geometry" />
        </mxCell>
        <mxCell id="JTAhajaf97moWuEwI5oV-26" value="NAME" style="ellipse;whiteSpace=wrap;html=1;fillColor=#fff2cc;strokeColor=#d6b656;" vertex="1" parent="1">
          <mxGeometry x="270" y="145" width="70" height="50" as="geometry" />
        </mxCell>
        <mxCell id="JTAhajaf97moWuEwI5oV-34" style="edgeStyle=none;rounded=0;orthogonalLoop=1;jettySize=auto;html=1;exitX=0.5;exitY=1;exitDx=0;exitDy=0;endArrow=none;startFill=0;" edge="1" parent="1" source="JTAhajaf97moWuEwI5oV-27" target="JTAhajaf97moWuEwI5oV-26">
          <mxGeometry relative="1" as="geometry" />
        </mxCell>
        <mxCell id="JTAhajaf97moWuEwI5oV-27" value="Lname" style="ellipse;whiteSpace=wrap;html=1;fillColor=#e3c800;fontColor=#000000;strokeColor=#B09500;" vertex="1" parent="1">
          <mxGeometry x="280" y="65" width="50" height="50" as="geometry" />
        </mxCell>
        <mxCell id="JTAhajaf97moWuEwI5oV-33" style="rounded=0;orthogonalLoop=1;jettySize=auto;html=1;exitX=0.5;exitY=1;exitDx=0;exitDy=0;endArrow=none;startFill=0;" edge="1" parent="1" source="JTAhajaf97moWuEwI5oV-28" target="JTAhajaf97moWuEwI5oV-26">
          <mxGeometry relative="1" as="geometry" />
        </mxCell>
        <mxCell id="JTAhajaf97moWuEwI5oV-28" value="Fname" style="ellipse;whiteSpace=wrap;html=1;fillColor=#e3c800;fontColor=#000000;strokeColor=#B09500;" vertex="1" parent="1">
          <mxGeometry x="360" y="95" width="50" height="50" as="geometry" />
        </mxCell>
        <mxCell id="JTAhajaf97moWuEwI5oV-32" style="rounded=0;orthogonalLoop=1;jettySize=auto;html=1;exitX=0.5;exitY=1;exitDx=0;exitDy=0;entryX=1;entryY=0;entryDx=0;entryDy=0;endArrow=none;startFill=0;" edge="1" parent="1" source="JTAhajaf97moWuEwI5oV-26" target="JTAhajaf97moWuEwI5oV-2">
          <mxGeometry relative="1" as="geometry" />
        </mxCell>
        <mxCell id="JTAhajaf97moWuEwI5oV-37" style="rounded=0;orthogonalLoop=1;jettySize=auto;html=1;exitX=0.5;exitY=1;exitDx=0;exitDy=0;endArrow=none;startFill=0;shape=link;" edge="1" parent="1" source="JTAhajaf97moWuEwI5oV-35">
          <mxGeometry relative="1" as="geometry">
            <mxPoint x="120" y="350" as="targetPoint" />
          </mxGeometry>
        </mxCell>
        <mxCell id="JTAhajaf97moWuEwI5oV-35" value="supervised" style="rhombus;whiteSpace=wrap;html=1;fillColor=#eeeeee;strokeColor=#36393d;" vertex="1" parent="1">
          <mxGeometry x="30" y="290" width="70" height="60" as="geometry" />
        </mxCell>
        <mxCell id="JTAhajaf97moWuEwI5oV-40" value="" style="endArrow=none;html=1;rounded=0;shape=link;" edge="1" parent="1">
          <mxGeometry width="50" height="50" relative="1" as="geometry">
            <mxPoint x="120" y="350" as="sourcePoint" />
            <mxPoint x="123.33333333333337" y="280" as="targetPoint" />
          </mxGeometry>
        </mxCell>
        <mxCell id="JTAhajaf97moWuEwI5oV-41" value="" style="endArrow=none;html=1;rounded=0;" edge="1" parent="1">
          <mxGeometry width="50" height="50" relative="1" as="geometry">
            <mxPoint x="70" y="270" as="sourcePoint" />
            <mxPoint x="100" y="270" as="targetPoint" />
          </mxGeometry>
        </mxCell>
        <mxCell id="JTAhajaf97moWuEwI5oV-42" value="" style="endArrow=none;html=1;rounded=0;exitX=0.5;exitY=0;exitDx=0;exitDy=0;" edge="1" parent="1" source="JTAhajaf97moWuEwI5oV-35">
          <mxGeometry width="50" height="50" relative="1" as="geometry">
            <mxPoint x="30" y="310" as="sourcePoint" />
            <mxPoint x="70" y="270" as="targetPoint" />
          </mxGeometry>
        </mxCell>
        <mxCell id="JTAhajaf97moWuEwI5oV-44" value="Gen" style="ellipse;whiteSpace=wrap;html=1;fillColor=#cdeb8b;strokeColor=#36393d;" vertex="1" parent="1">
          <mxGeometry x="270" y="640" width="80" height="70" as="geometry" />
        </mxCell>
        <mxCell id="JTAhajaf97moWuEwI5oV-45" value="Name" style="ellipse;whiteSpace=wrap;html=1;fontStyle=4;fillColor=#cdeb8b;strokeColor=#36393d;" vertex="1" parent="1">
          <mxGeometry x="25" y="650" width="80" height="70" as="geometry" />
        </mxCell>
        <mxCell id="JTAhajaf97moWuEwI5oV-46" value="BD" style="ellipse;whiteSpace=wrap;html=1;fillColor=#cdeb8b;strokeColor=#36393d;" vertex="1" parent="1">
          <mxGeometry x="140" y="710" width="80" height="70" as="geometry" />
        </mxCell>
        <mxCell id="JTAhajaf97moWuEwI5oV-55" style="edgeStyle=none;rounded=0;orthogonalLoop=1;jettySize=auto;html=1;endArrow=none;startFill=0;" edge="1" parent="1" source="JTAhajaf97moWuEwI5oV-50" target="JTAhajaf97moWuEwI5oV-3">
          <mxGeometry relative="1" as="geometry" />
        </mxCell>
        <mxCell id="JTAhajaf97moWuEwI5oV-50" value="City" style="ellipse;whiteSpace=wrap;html=1;fillColor=#e1d5e7;strokeColor=#9673a6;" vertex="1" parent="1">
          <mxGeometry x="725" y="550" width="70" height="60" as="geometry" />
        </mxCell>
        <mxCell id="JTAhajaf97moWuEwI5oV-51" value="PND" style="ellipse;whiteSpace=wrap;html=1;fontStyle=4;fillColor=#e1d5e7;strokeColor=#9673a6;" vertex="1" parent="1">
          <mxGeometry x="610" y="660" width="70" height="55" as="geometry" />
        </mxCell>
        <mxCell id="JTAhajaf97moWuEwI5oV-56" style="edgeStyle=none;rounded=0;orthogonalLoop=1;jettySize=auto;html=1;entryX=1;entryY=1;entryDx=0;entryDy=0;endArrow=none;startFill=0;" edge="1" parent="1" source="JTAhajaf97moWuEwI5oV-52" target="JTAhajaf97moWuEwI5oV-3">
          <mxGeometry relative="1" as="geometry" />
        </mxCell>
        <mxCell id="JTAhajaf97moWuEwI5oV-52" value="LOC" style="ellipse;whiteSpace=wrap;html=1;fillColor=#e1d5e7;strokeColor=#9673a6;" vertex="1" parent="1">
          <mxGeometry x="700" y="645" width="70" height="60" as="geometry" />
        </mxCell>
        <mxCell id="JTAhajaf97moWuEwI5oV-58" style="edgeStyle=none;rounded=0;orthogonalLoop=1;jettySize=auto;html=1;entryX=0;entryY=1;entryDx=0;entryDy=0;endArrow=none;startFill=0;" edge="1" parent="1" source="JTAhajaf97moWuEwI5oV-53" target="JTAhajaf97moWuEwI5oV-3">
          <mxGeometry relative="1" as="geometry" />
        </mxCell>
        <mxCell id="JTAhajaf97moWuEwI5oV-53" value="Pname" style="ellipse;whiteSpace=wrap;html=1;fillColor=#e1d5e7;strokeColor=#9673a6;" vertex="1" parent="1">
          <mxGeometry x="510" y="660" width="70" height="60" as="geometry" />
        </mxCell>
        <mxCell id="JTAhajaf97moWuEwI5oV-57" style="edgeStyle=none;rounded=0;orthogonalLoop=1;jettySize=auto;html=1;entryX=0.6;entryY=1.033;entryDx=0;entryDy=0;entryPerimeter=0;endArrow=none;startFill=0;" edge="1" parent="1" source="JTAhajaf97moWuEwI5oV-51" target="JTAhajaf97moWuEwI5oV-3">
          <mxGeometry relative="1" as="geometry" />
        </mxCell>
        <mxCell id="JTAhajaf97moWuEwI5oV-61" style="edgeStyle=none;rounded=0;orthogonalLoop=1;jettySize=auto;html=1;entryX=1;entryY=1;entryDx=0;entryDy=0;endArrow=none;startFill=0;exitX=0;exitY=0.5;exitDx=0;exitDy=0;" edge="1" parent="1" source="JTAhajaf97moWuEwI5oV-60" target="JTAhajaf97moWuEwI5oV-2">
          <mxGeometry relative="1" as="geometry" />
        </mxCell>
        <mxCell id="JTAhajaf97moWuEwI5oV-62" style="edgeStyle=none;rounded=0;orthogonalLoop=1;jettySize=auto;html=1;exitX=1;exitY=0.5;exitDx=0;exitDy=0;entryX=0;entryY=1;entryDx=0;entryDy=0;shape=link;" edge="1" parent="1" source="JTAhajaf97moWuEwI5oV-60" target="JTAhajaf97moWuEwI5oV-1">
          <mxGeometry relative="1" as="geometry" />
        </mxCell>
        <mxCell id="JTAhajaf97moWuEwI5oV-69" style="edgeStyle=none;rounded=0;orthogonalLoop=1;jettySize=auto;html=1;exitX=0.5;exitY=1;exitDx=0;exitDy=0;entryX=0.5;entryY=0;entryDx=0;entryDy=0;endArrow=none;startFill=0;" edge="1" parent="1" source="JTAhajaf97moWuEwI5oV-60" target="JTAhajaf97moWuEwI5oV-68">
          <mxGeometry relative="1" as="geometry" />
        </mxCell>
        <mxCell id="JTAhajaf97moWuEwI5oV-60" value="mange" style="rhombus;whiteSpace=wrap;html=1;fillColor=#cdeb8b;strokeColor=#36393d;" vertex="1" parent="1">
          <mxGeometry x="400" y="310" width="70" height="60" as="geometry" />
        </mxCell>
        <mxCell id="JTAhajaf97moWuEwI5oV-64" style="edgeStyle=none;rounded=0;orthogonalLoop=1;jettySize=auto;html=1;" edge="1" parent="1" source="JTAhajaf97moWuEwI5oV-63" target="JTAhajaf97moWuEwI5oV-2">
          <mxGeometry relative="1" as="geometry" />
        </mxCell>
        <mxCell id="JTAhajaf97moWuEwI5oV-65" style="edgeStyle=none;rounded=0;orthogonalLoop=1;jettySize=auto;html=1;exitX=1;exitY=0.5;exitDx=0;exitDy=0;entryX=0;entryY=0.5;entryDx=0;entryDy=0;shape=link;" edge="1" parent="1" source="JTAhajaf97moWuEwI5oV-63" target="JTAhajaf97moWuEwI5oV-3">
          <mxGeometry relative="1" as="geometry" />
        </mxCell>
        <mxCell id="JTAhajaf97moWuEwI5oV-67" style="edgeStyle=none;rounded=0;orthogonalLoop=1;jettySize=auto;html=1;exitX=0.5;exitY=1;exitDx=0;exitDy=0;entryX=0.5;entryY=0;entryDx=0;entryDy=0;endArrow=none;startFill=0;" edge="1" parent="1" source="JTAhajaf97moWuEwI5oV-63" target="JTAhajaf97moWuEwI5oV-66">
          <mxGeometry relative="1" as="geometry" />
        </mxCell>
        <mxCell id="JTAhajaf97moWuEwI5oV-63" value="work" style="rhombus;whiteSpace=wrap;html=1;fillColor=#ffcccc;strokeColor=#36393d;" vertex="1" parent="1">
          <mxGeometry x="360" y="480" width="80" height="80" as="geometry" />
        </mxCell>
        <mxCell id="JTAhajaf97moWuEwI5oV-66" value="WH" style="ellipse;whiteSpace=wrap;html=1;aspect=fixed;fillColor=#f8cecc;gradientColor=#ea6b66;strokeColor=#b85450;gradientDirection=north;" vertex="1" parent="1">
          <mxGeometry x="375" y="575" width="50" height="50" as="geometry" />
        </mxCell>
        <mxCell id="JTAhajaf97moWuEwI5oV-68" value="HD" style="ellipse;whiteSpace=wrap;html=1;fillColor=#6d8764;fontColor=#ffffff;strokeColor=#3A5431;fillStyle=solid;" vertex="1" parent="1">
          <mxGeometry x="410" y="385" width="50" height="50" as="geometry" />
        </mxCell>
        <mxCell id="JTAhajaf97moWuEwI5oV-70" value="1" style="text;html=1;align=center;verticalAlign=middle;whiteSpace=wrap;rounded=0;" vertex="1" parent="1">
          <mxGeometry x="515" y="220" width="60" height="30" as="geometry" />
        </mxCell>
        <mxCell id="JTAhajaf97moWuEwI5oV-71" value="M" style="text;html=1;align=center;verticalAlign=middle;whiteSpace=wrap;rounded=0;" vertex="1" parent="1">
          <mxGeometry x="220" y="220" width="60" height="30" as="geometry" />
        </mxCell>
        <mxCell id="JTAhajaf97moWuEwI5oV-72" value="1" style="text;html=1;align=center;verticalAlign=middle;whiteSpace=wrap;rounded=0;" vertex="1" parent="1">
          <mxGeometry x="550" y="280" width="60" height="30" as="geometry" />
        </mxCell>
        <mxCell id="JTAhajaf97moWuEwI5oV-73" value="1" style="text;html=1;align=center;verticalAlign=middle;whiteSpace=wrap;rounded=0;" vertex="1" parent="1">
          <mxGeometry x="620" y="280" width="60" height="30" as="geometry" />
        </mxCell>
        <mxCell id="JTAhajaf97moWuEwI5oV-75" value="M" style="text;html=1;align=center;verticalAlign=middle;whiteSpace=wrap;rounded=0;" vertex="1" parent="1">
          <mxGeometry x="630" y="530" width="60" height="30" as="geometry" />
        </mxCell>
        <mxCell id="JTAhajaf97moWuEwI5oV-76" value="M" style="text;html=1;align=center;verticalAlign=middle;whiteSpace=wrap;rounded=0;" vertex="1" parent="1">
          <mxGeometry x="510" y="575" width="60" height="30" as="geometry" />
        </mxCell>
        <mxCell id="JTAhajaf97moWuEwI5oV-77" value="M" style="text;html=1;align=center;verticalAlign=middle;whiteSpace=wrap;rounded=0;" vertex="1" parent="1">
          <mxGeometry x="150" y="540" width="60" height="30" as="geometry" />
        </mxCell>
        <mxCell id="JTAhajaf97moWuEwI5oV-78" value="M" style="text;html=1;align=center;verticalAlign=middle;whiteSpace=wrap;rounded=0;" vertex="1" parent="1">
          <mxGeometry x="180" y="280" width="60" height="30" as="geometry" />
        </mxCell>
        <mxCell id="JTAhajaf97moWuEwI5oV-79" value="1" style="text;html=1;align=center;verticalAlign=middle;whiteSpace=wrap;rounded=0;" vertex="1" parent="1">
          <mxGeometry x="210" y="260" width="60" height="30" as="geometry" />
        </mxCell>
        <mxCell id="JTAhajaf97moWuEwI5oV-81" value="1" style="text;html=1;align=center;verticalAlign=middle;whiteSpace=wrap;rounded=0;" vertex="1" parent="1">
          <mxGeometry x="150" y="280" width="60" height="30" as="geometry" />
        </mxCell>
        <mxCell id="JTAhajaf97moWuEwI5oV-82" value="1" style="text;html=1;align=center;verticalAlign=middle;whiteSpace=wrap;rounded=0;" vertex="1" parent="1">
          <mxGeometry x="55" y="250" width="60" height="30" as="geometry" />
        </mxCell>
        <mxCell id="JTAhajaf97moWuEwI5oV-83" value="M" style="text;html=1;align=center;verticalAlign=middle;whiteSpace=wrap;rounded=0;" vertex="1" parent="1">
          <mxGeometry x="80" y="280" width="60" height="30" as="geometry" />
        </mxCell>
      </root>
    </mxGraphModel>
  </diagram>
</mxfile>
